<svg xmlns="http://www.w3.org/2000/svg" width="1925" height="712" viewBox="0 0 1925 712">
  <g fill="none" fill-rule="evenodd" transform="translate(63 113)">
    <path fill="#000" d="M1293.79208 305.28125L1277 305.28125 1277 295.789063 1293.79208 295.789063 1293.79208 269.246094C1293.79208 263.97263 1294.5792 259.607439 1296.15347 256.150391 1297.72773 252.693342 1299.68096 249.910167 1302.0132 247.800781 1304.34545 245.691396 1306.94003 244.19727 1309.79703 243.318359 1312.65403 242.439449 1315.36522 242 1317.93069 242 1322.82841 242 1326.85147 242.703118 1330 244.109375L1327.90099 253.25C1325.56875 252.078119 1322.42026 251.492187 1318.45545 251.492187 1309.00985 251.492187 1304.28713 258.699147 1304.28713 273.113281L1304.28713 295.789063 1323.17822 295.789063 1323.17822 305.28125 1304.28713 305.28125 1304.28713 377 1293.79208 377 1293.79208 305.28125zM1470.12718 354.135021C1470.12718 355.65261 1470.18537 357.491199 1470.30175 359.650844 1470.41812 361.810489 1470.5054 363.999286 1470.56359 366.2173 1470.62178 368.435313 1470.70906 370.507374 1470.82544 372.433544 1470.94181 374.359714 1471 375.848096 1471 376.898734L1460.52618 376.898734C1460.40981 373.863557 1460.32253 370.945162 1460.26434 368.14346 1460.20615 365.341758 1460.06068 363.532353 1459.82793 362.71519L1459.30424 362.71519C1457.20947 367.151218 1453.71823 370.974316 1448.83042 374.184599 1443.94262 377.394882 1438.24027 379 1431.72319 379 1425.43887 379 1420.2893 378.007746 1416.27431 376.023207 1412.25933 374.038668 1409.11722 371.441296 1406.84788 368.231013 1404.57854 365.020729 1403.03658 361.314367 1402.22195 357.111814 1401.40731 352.909262 1401 348.590036 1401 344.154008L1401 296 1411.47382 296 1411.47382 343.628692C1411.47382 346.897344 1411.76475 350.078395 1412.34663 353.171941 1412.92851 356.265487 1413.94679 359.037962 1415.4015 361.489451 1416.8562 363.940941 1418.89275 365.896266 1421.51122 367.355485 1424.12969 368.814705 1427.53364 369.544304 1431.72319 369.544304 1435.56361 369.544304 1439.20032 368.873073 1442.63342 367.530591 1446.06652 366.188109 1449.03407 364.145232 1451.53616 361.401899 1454.03825 358.658566 1456.01662 355.214859 1457.47132 351.070675 1458.92603 346.926491 1459.65337 342.052771 1459.65337 336.449367L1459.65337 296 1470.12718 296 1470.12718 354.135021zM1558.87282 318.864979C1558.87282 317.34739 1558.81463 315.508801 1558.69825 313.349156 1558.58188 311.189511 1558.4946 309.000714 1558.43641 306.7827 1558.37822 304.564687 1558.29094 302.492626 1558.17456 300.566456 1558.05819 298.640286 1558 297.151904 1558 296.101266L1568.47382 296.101266C1568.59019 299.136443 1568.67747 302.054838 1568.73566 304.85654 1568.79385 307.658242 1568.93932 309.467647 1569.17207 310.28481L1569.69576 310.28481C1571.79053 305.848782 1575.28177 302.025684 1580.16958 298.815401 1585.05738 295.605118 1590.75973 294 1597.27681 294 1603.56113 294 1608.68161 294.992254 1612.6384 296.976793 1616.5952 298.961332 1619.70822 301.558704 1621.97756 304.768987 1624.24689 307.979271 1625.81795 311.685633 1626.69077 315.888186 1627.5636 320.090738 1628 324.409964 1628 328.845992L1628 377 1617.52618 377 1617.52618 329.371308C1617.52618 326.102656 1617.23525 322.921605 1616.65337 319.828059 1616.07149 316.734513 1615.05321 313.962038 1613.5985 311.510549 1612.1438 309.059059 1610.10725 307.103734 1607.48878 305.644515 1604.87031 304.185295 1601.46636 303.455696 1597.27681 303.455696 1593.43639 303.455696 1589.79968 304.126927 1586.36658 305.469409 1582.93348 306.811891 1579.96593 308.854768 1577.46384 311.598101 1574.96175 314.341434 1572.98338 317.785141 1571.52868 321.929325 1570.07397 326.073509 1569.34663 330.947229 1569.34663 336.550633L1569.34663 377 1558.87282 377 1558.87282 318.864979zM1789.46939 362.652344L1789.11837 362.652344C1787.48026 365.464858 1785.43267 367.896474 1782.97551 369.947266 1780.51836 371.998057 1777.85648 373.697259 1774.9898 375.044922 1772.12311 376.392585 1769.11022 377.388669 1765.95102 378.033203 1762.79182 378.677738 1759.69117 379 1756.64898 379 1750.44759 379 1744.71431 377.945323 1739.44898 375.835938 1734.18365 373.726552 1729.67893 370.767597 1725.93469 366.958984 1722.19046 363.150372 1719.26532 358.638698 1717.15918 353.423828 1715.05305 348.208958 1714 342.496125 1714 336.285156 1714 330.074188 1715.05305 324.361354 1717.15918 319.146484 1719.26532 313.931615 1722.19046 309.419941 1725.93469 305.611328 1729.67893 301.802715 1734.18365 298.843761 1739.44898 296.734375 1744.71431 294.624989 1750.44759 293.570312 1756.64898 293.570312 1759.69117 293.570312 1762.79182 293.892575 1765.95102 294.537109 1769.11022 295.181644 1772.12311 296.177728 1774.9898 297.525391 1777.85648 298.873054 1780.51836 300.572255 1782.97551 302.623047 1785.43267 304.673838 1787.48026 307.105455 1789.11837 309.917969L1789.46939 309.917969 1789.46939 244 1800 244 1800 376.890625 1789.46939 376.890625 1789.46939 362.652344zM1792 336C1792 331.460295 1791.12235 327.18256 1789.36702 323.166667 1787.61169 319.150774 1785.21278 315.658745 1782.17021 312.690476 1779.12764 309.722207 1775.55853 307.365088 1771.46277 305.619048 1767.367 303.873007 1762.92024 303 1758.12234 303 1753.20742 303 1748.76066 303.873007 1744.78191 305.619048 1740.80317 307.365088 1737.40959 309.722207 1734.60106 312.690476 1731.79254 315.658745 1729.65692 319.150774 1728.19415 323.166667 1726.73138 327.18256 1726 331.460295 1726 336 1726 340.539705 1726.73138 344.81744 1728.19415 348.833333 1729.65692 352.849226 1731.79254 356.341255 1734.60106 359.309524 1737.40959 362.277793 1740.80317 364.634912 1744.78191 366.380952 1748.76066 368.126993 1753.20742 369 1758.12234 369 1762.92024 369 1767.367 368.126993 1771.46277 366.380952 1775.55853 364.634912 1779.12764 362.277793 1782.17021 359.309524 1785.21278 356.341255 1787.61169 352.849226 1789.36702 348.833333 1791.12235 344.81744 1792 340.539705 1792 336zM1.42108547e-13 6.03608035L27.6366445 6.03608035 167.770689 207.364207 168.420963 207.364207 168.420963 6.03608035 189.880005 6.03608035 189.880005 235.939812 162.24336 235.939812 22.1093156 34.6116854 21.4590416 34.6116854 21.4590416 235.939812 1.42108547e-13 235.939812 1.42108547e-13 6.03608035zM381.279076 121.001964C381.279076 103.437075 384.208728 87.2819562 390.068121 72.5361235 395.927514 57.7902907 404.065438 45.050516 414.482137 34.3164172 424.898835 23.5823183 437.431238 15.1794882 452.07972 9.10767469 466.728203 3.03586121 482.841292-9.9475983e-14 500.419471-9.9475983e-14 517.99765-9.9475983e-14 534.110739 3.03586121 548.759221 9.10767469 563.407704 15.1794882 575.940106 23.5823183 586.356805 34.3164172 596.773504 45.050516 604.911427 57.7902907 610.77082 72.5361235 616.630213 87.2819562 619.559866 103.437075 619.559866 121.001964 619.559866 138.566853 616.630213 154.776183 610.77082 169.630441 604.911427 184.484699 596.773504 197.278686 586.356805 208.012785 575.940106 218.746883 563.407704 227.095502 548.759221 233.05889 534.110739 239.022278 517.99765 242.003928 500.419471 242.003928 482.841292 242.003928 466.728203 239.022278 452.07972 233.05889 437.431238 227.095502 424.898835 218.746883 414.482137 208.012785 404.065438 197.278686 395.927514 184.484699 390.068121 169.630441 384.208728 154.776183 381.279076 138.566853 381.279076 121.001964zM402.687115 121.001964C402.687115 135.309861 404.967514 148.64202 409.52838 160.998841 414.089246 173.355661 420.604672 184.086423 429.074851 193.191449 437.545031 202.296475 447.806826 209.450316 459.860543 214.653188 471.914261 219.85606 485.433768 222.457457 500.419471 222.457457 515.405174 222.457457 528.924681 219.85606 540.978398 214.653188 553.032116 209.450316 563.29391 202.296475 571.76409 193.191449 580.23427 184.086423 586.749695 173.355661 591.310561 160.998841 595.871427 148.64202 598.151826 135.309861 598.151826 121.001964 598.151826 106.694066 595.871427 93.3619074 591.310561 81.0050869 586.749695 68.6482663 580.23427 57.9175042 571.76409 48.8124786 563.29391 39.7074529 553.032116 32.5536115 540.978398 27.3507397 528.924681 22.147868 515.405174 19.5464711 500.419471 19.5464711 485.433768 19.5464711 471.914261 22.147868 459.860543 27.3507397 447.806826 32.5536115 437.545031 39.7074529 429.074851 48.8124786 420.604672 57.9175042 414.089246 68.6482663 409.52838 81.0050869 404.967514 93.3619074 402.687115 106.694066 402.687115 121.001964zM802.798687 6.03608035L825.856965 6.03608035 899.903268 207.688929 974.599099 6.03608035 997.332613 6.03608035 909.970967 235.939812 888.536511 235.939812 802.798687 6.03608035zM1289.66563 6.03608035L1311.79486 6.03608035 1408.77293 235.939812 1384.69113 235.939812 1359.63304 174.891928 1237.59687 174.891928 1211.56248 235.939812 1189.10783 235.939812 1289.66563 6.03608035zM1299.75661 29.3056888L1245.88567 155.892359 1351.99509 155.892359 1299.75661 29.3056888zM1628.73568 6.03608035L1650.22512 6.03608035 1650.22512 107.349589 1652.17871 107.349589 1763.85867 6.03608035 1793.48805 6.03608035 1676.92412 111.246262 1800 235.939812 1769.06823 235.939812 1652.17871 117.091273 1650.22512 117.091273 1650.22512 235.939812 1628.73568 235.939812 1628.73568 6.03608035z" transform="translate(0 108)"/>
    <g transform="translate(260)">
      <g stroke="#000" stroke-width="21" transform="translate(0 188)">
        <path stroke-linecap="square" d="M81.5,41 L121.5,41" transform="rotate(180 101.5 41)"/>
        <circle cx="40.5" cy="40.5" r="40.5" fill="#000" transform="rotate(180 40.5 40.5)"/>
      </g>
      <g stroke="#000" stroke-width="21" transform="matrix(-1 0 0 1 481 188)">
        <path stroke-linecap="square" d="M81.5,41 L121.5,41" transform="rotate(180 101.5 41)"/>
        <circle cx="40.5" cy="40.5" r="40.5" transform="rotate(180 40.5 40.5)"/>
      </g>
      <g stroke="#000" stroke-width="21" transform="scale(-1 1) rotate(60 -163.079 -281.616)">
        <path stroke-linecap="square" d="M81.5,41 L121.5,41" transform="rotate(180 101.5 41)"/>
        <circle cx="40.5" cy="40.5" r="40.5" fill="#000" transform="rotate(180 40.5 40.5)"/>
      </g>
      <g stroke="#000" stroke-width="21" transform="rotate(60 77.421 134.942)">
        <path stroke-linecap="square" d="M81.5,41 L121.5,41" transform="rotate(180 101.5 41)"/>
        <circle cx="40.5" cy="40.5" r="40.5" transform="rotate(180 40.5 40.5)"/>
      </g>
      <g stroke="#000" stroke-width="21" transform="rotate(-120 294.804 134.846)">
        <path stroke-linecap="square" d="M81.5,41 L121.5,41" transform="rotate(180 101.5 41)"/>
        <circle cx="40.5" cy="40.5" r="40.5" fill="#000" transform="rotate(180 40.5 40.5)"/>
      </g>
      <g stroke="#000" stroke-width="21" transform="scale(1 -1) rotate(60 474.06 -94.058)">
        <path stroke-linecap="square" d="M81.5,41 L121.5,41" transform="rotate(180 101.5 41)"/>
        <circle cx="40.5" cy="40.5" r="40.5" transform="rotate(180 40.5 40.5)"/>
      </g>
      <g transform="translate(122 110)">
        <circle cx="118.5" cy="118.5" r="118.5" fill="#000" stroke="#000" stroke-width="21"/>
        <polygon fill="#FFF" points="117 158 117 198 68 118.956 71.132 121.291"/>
        <polygon fill="#FFF" points="169 39 169 96 120 111.938" transform="matrix(-1 0 0 1 289 0)"/>
        <polygon fill="#FFF" points="169 100 169 150 120 111.938" transform="matrix(-1 0 0 1 289 0)"/>
      </g>
    </g>
  </g>
</svg>
