<?xml version="1.0" encoding="UTF-8"?>
<svg width="540px" height="540px" viewBox="0 0 540 540" version="1.1" xmlns="http://www.w3.org/2000/svg" xmlns:xlink="http://www.w3.org/1999/xlink">
    <!-- Generator: Sketch 55.2 (78181) - https://sketchapp.com -->
    <title>FINAL-MINI</title>
    <desc>Created with Sketch.</desc>
    <g id="FINAL-MINI" stroke="none" stroke-width="1" fill="none" fill-rule="evenodd">
        <g id="Group-7" transform="translate(30.000000, 41.000000)">
            <g id="Group-6" transform="translate(0.000000, 188.000000)" stroke="#000000" stroke-width="21">
                <path d="M81.5,41 L121.5,41" id="Line" stroke-linecap="square" transform="translate(101.500000, 41.000000) scale(-1, -1) translate(-101.500000, -41.000000) "></path>
                <circle id="Oval" fill="#000000" transform="translate(40.500000, 40.500000) scale(-1, -1) translate(-40.500000, -40.500000) " cx="40.5" cy="40.5" r="40.5"></circle>
            </g>
            <g id="Group-6" transform="translate(420.000000, 228.500000) scale(-1, 1) translate(-420.000000, -228.500000) translate(359.000000, 188.000000)" stroke="#000000" stroke-width="21">
                <path d="M81.5,41 L121.5,41" id="Line" stroke-linecap="square" transform="translate(101.500000, 41.000000) scale(-1, -1) translate(-101.500000, -41.000000) "></path>
                <circle id="Oval" transform="translate(40.500000, 40.500000) scale(-1, -1) translate(-40.500000, -40.500000) " cx="40.5" cy="40.5" r="40.5"></circle>
            </g>
            <g id="Group-6" transform="translate(330.000000, 73.500000) scale(-1, 1) rotate(60.000000) translate(-330.000000, -73.500000) translate(269.000000, 33.000000)" stroke="#000000" stroke-width="21">
                <path d="M81.5,41 L121.5,41" id="Line" stroke-linecap="square" transform="translate(101.500000, 41.000000) scale(-1, -1) translate(-101.500000, -41.000000) "></path>
                <circle id="Oval" fill="#000000" transform="translate(40.500000, 40.500000) scale(-1, -1) translate(-40.500000, -40.500000) " cx="40.5" cy="40.5" r="40.5"></circle>
            </g>
            <g id="Group-6" transform="translate(151.000000, 73.500000) rotate(60.000000) translate(-151.000000, -73.500000) translate(90.000000, 33.000000)" stroke="#000000" stroke-width="21">
                <path d="M81.5,41 L121.5,41" id="Line" stroke-linecap="square" transform="translate(101.500000, 41.000000) scale(-1, -1) translate(-101.500000, -41.000000) "></path>
                <circle id="Oval" transform="translate(40.500000, 40.500000) scale(-1, -1) translate(-40.500000, -40.500000) " cx="40.5" cy="40.5" r="40.5"></circle>
            </g>
            <g id="Group-6" transform="translate(330.000000, 384.500000) scale(-1, -1) rotate(60.000000) translate(-330.000000, -384.500000) translate(269.000000, 344.000000)" stroke="#000000" stroke-width="21">
                <path d="M81.5,41 L121.5,41" id="Line" stroke-linecap="square" transform="translate(101.500000, 41.000000) scale(-1, -1) translate(-101.500000, -41.000000) "></path>
                <circle id="Oval" fill="#000000" transform="translate(40.500000, 40.500000) scale(-1, -1) translate(-40.500000, -40.500000) " cx="40.5" cy="40.5" r="40.5"></circle>
            </g>
            <g id="Group-6" transform="translate(151.000000, 384.500000) scale(1, -1) rotate(60.000000) translate(-151.000000, -384.500000) translate(90.000000, 344.000000)" stroke="#000000" stroke-width="21">
                <path d="M81.5,41 L121.5,41" id="Line" stroke-linecap="square" transform="translate(101.500000, 41.000000) scale(-1, -1) translate(-101.500000, -41.000000) "></path>
                <circle id="Oval" transform="translate(40.500000, 40.500000) scale(-1, -1) translate(-40.500000, -40.500000) " cx="40.5" cy="40.5" r="40.5"></circle>
            </g>
            <g id="Group-5" transform="translate(122.000000, 110.000000)">
                <g id="Group-4">
                    <g id="Group-3">
                        <g id="Group-2">
                            <g id="Group">
                                <circle id="Oval" stroke="#000000" stroke-width="21" fill="#000000" cx="118.5" cy="118.5" r="118.5"></circle>
                                <polygon id="Path-7" fill="#FFFFFF" points="117 158 117 198 68 118.955733 71.1322824 121.291077"></polygon>
                                <polygon id="Path-5" fill="#FFFFFF" transform="translate(144.500000, 75.468899) scale(-1, 1) translate(-144.500000, -75.468899) " points="169 39 169 96 120 111.937797"></polygon>
                                <polygon id="Path-6" fill="#FFFFFF" transform="translate(144.500000, 125.000000) scale(-1, 1) translate(-144.500000, -125.000000) " points="169 100 169 150 120 111.937797"></polygon>
                            </g>
                        </g>
                    </g>
                </g>
            </g>
        </g>
    </g>
</svg>