<?xml version="1.0" encoding="UTF-8"?>
<svg width="1925px" height="712px" viewBox="0 0 1925 712" version="1.1" xmlns="http://www.w3.org/2000/svg" xmlns:xlink="http://www.w3.org/1999/xlink">
    <!-- Generator: Sketch 55.2 (78181) - https://sketchapp.com -->
    <title>FINAL</title>
    <desc>Created with Sketch.</desc>
    <g id="FINAL" stroke="none" stroke-width="1" fill="none" fill-rule="evenodd">
        <g id="Group-8" transform="translate(63.000000, 113.000000)">
            <g id="Group" transform="translate(0.000000, 108.000000)" fill="#000000">
                <path d="M1293.79208,305.28125 L1277,305.28125 L1277,295.789063 L1293.79208,295.789063 L1293.79208,269.246094 C1293.79208,263.97263 1294.5792,259.607439 1296.15347,256.150391 C1297.72773,252.693342 1299.68096,249.910167 1302.0132,247.800781 C1304.34545,245.691396 1306.94003,244.19727 1309.79703,243.318359 C1312.65403,242.439449 1315.36522,242 1317.93069,242 C1322.82841,242 1326.85147,242.703118 1330,244.109375 L1327.90099,253.25 C1325.56875,252.078119 1322.42026,251.492187 1318.45545,251.492187 C1309.00985,251.492187 1304.28713,258.699147 1304.28713,273.113281 L1304.28713,295.789063 L1323.17822,295.789063 L1323.17822,305.28125 L1304.28713,305.28125 L1304.28713,377 L1293.79208,377 L1293.79208,305.28125 Z M1470.12718,354.135021 C1470.12718,355.65261 1470.18537,357.491199 1470.30175,359.650844 C1470.41812,361.810489 1470.5054,363.999286 1470.56359,366.2173 C1470.62178,368.435313 1470.70906,370.507374 1470.82544,372.433544 C1470.94181,374.359714 1471,375.848096 1471,376.898734 L1460.52618,376.898734 C1460.40981,373.863557 1460.32253,370.945162 1460.26434,368.14346 C1460.20615,365.341758 1460.06068,363.532353 1459.82793,362.71519 L1459.30424,362.71519 C1457.20947,367.151218 1453.71823,370.974316 1448.83042,374.184599 C1443.94262,377.394882 1438.24027,379 1431.72319,379 C1425.43887,379 1420.2893,378.007746 1416.27431,376.023207 C1412.25933,374.038668 1409.11722,371.441296 1406.84788,368.231013 C1404.57854,365.020729 1403.03658,361.314367 1402.22195,357.111814 C1401.40731,352.909262 1401,348.590036 1401,344.154008 L1401,296 L1411.47382,296 L1411.47382,343.628692 C1411.47382,346.897344 1411.76475,350.078395 1412.34663,353.171941 C1412.92851,356.265487 1413.94679,359.037962 1415.4015,361.489451 C1416.8562,363.940941 1418.89275,365.896266 1421.51122,367.355485 C1424.12969,368.814705 1427.53364,369.544304 1431.72319,369.544304 C1435.56361,369.544304 1439.20032,368.873073 1442.63342,367.530591 C1446.06652,366.188109 1449.03407,364.145232 1451.53616,361.401899 C1454.03825,358.658566 1456.01662,355.214859 1457.47132,351.070675 C1458.92603,346.926491 1459.65337,342.052771 1459.65337,336.449367 L1459.65337,296 L1470.12718,296 L1470.12718,354.135021 Z M1558.87282,318.864979 C1558.87282,317.34739 1558.81463,315.508801 1558.69825,313.349156 C1558.58188,311.189511 1558.4946,309.000714 1558.43641,306.7827 C1558.37822,304.564687 1558.29094,302.492626 1558.17456,300.566456 C1558.05819,298.640286 1558,297.151904 1558,296.101266 L1568.47382,296.101266 C1568.59019,299.136443 1568.67747,302.054838 1568.73566,304.85654 C1568.79385,307.658242 1568.93932,309.467647 1569.17207,310.28481 L1569.69576,310.28481 C1571.79053,305.848782 1575.28177,302.025684 1580.16958,298.815401 C1585.05738,295.605118 1590.75973,294 1597.27681,294 C1603.56113,294 1608.68161,294.992254 1612.6384,296.976793 C1616.5952,298.961332 1619.70822,301.558704 1621.97756,304.768987 C1624.24689,307.979271 1625.81795,311.685633 1626.69077,315.888186 C1627.5636,320.090738 1628,324.409964 1628,328.845992 L1628,377 L1617.52618,377 L1617.52618,329.371308 C1617.52618,326.102656 1617.23525,322.921605 1616.65337,319.828059 C1616.07149,316.734513 1615.05321,313.962038 1613.5985,311.510549 C1612.1438,309.059059 1610.10725,307.103734 1607.48878,305.644515 C1604.87031,304.185295 1601.46636,303.455696 1597.27681,303.455696 C1593.43639,303.455696 1589.79968,304.126927 1586.36658,305.469409 C1582.93348,306.811891 1579.96593,308.854768 1577.46384,311.598101 C1574.96175,314.341434 1572.98338,317.785141 1571.52868,321.929325 C1570.07397,326.073509 1569.34663,330.947229 1569.34663,336.550633 L1569.34663,377 L1558.87282,377 L1558.87282,318.864979 Z M1789.46939,362.652344 L1789.11837,362.652344 C1787.48026,365.464858 1785.43267,367.896474 1782.97551,369.947266 C1780.51836,371.998057 1777.85648,373.697259 1774.9898,375.044922 C1772.12311,376.392585 1769.11022,377.388669 1765.95102,378.033203 C1762.79182,378.677738 1759.69117,379 1756.64898,379 C1750.44759,379 1744.71431,377.945323 1739.44898,375.835938 C1734.18365,373.726552 1729.67893,370.767597 1725.93469,366.958984 C1722.19046,363.150372 1719.26532,358.638698 1717.15918,353.423828 C1715.05305,348.208958 1714,342.496125 1714,336.285156 C1714,330.074188 1715.05305,324.361354 1717.15918,319.146484 C1719.26532,313.931615 1722.19046,309.419941 1725.93469,305.611328 C1729.67893,301.802715 1734.18365,298.843761 1739.44898,296.734375 C1744.71431,294.624989 1750.44759,293.570312 1756.64898,293.570312 C1759.69117,293.570312 1762.79182,293.892575 1765.95102,294.537109 C1769.11022,295.181644 1772.12311,296.177728 1774.9898,297.525391 C1777.85648,298.873054 1780.51836,300.572255 1782.97551,302.623047 C1785.43267,304.673838 1787.48026,307.105455 1789.11837,309.917969 L1789.46939,309.917969 L1789.46939,244 L1800,244 L1800,376.890625 L1789.46939,376.890625 L1789.46939,362.652344 Z M1792,336 C1792,331.460295 1791.12235,327.18256 1789.36702,323.166667 C1787.61169,319.150774 1785.21278,315.658745 1782.17021,312.690476 C1779.12764,309.722207 1775.55853,307.365088 1771.46277,305.619048 C1767.367,303.873007 1762.92024,303 1758.12234,303 C1753.20742,303 1748.76066,303.873007 1744.78191,305.619048 C1740.80317,307.365088 1737.40959,309.722207 1734.60106,312.690476 C1731.79254,315.658745 1729.65692,319.150774 1728.19415,323.166667 C1726.73138,327.18256 1726,331.460295 1726,336 C1726,340.539705 1726.73138,344.81744 1728.19415,348.833333 C1729.65692,352.849226 1731.79254,356.341255 1734.60106,359.309524 C1737.40959,362.277793 1740.80317,364.634912 1744.78191,366.380952 C1748.76066,368.126993 1753.20742,369 1758.12234,369 C1762.92024,369 1767.367,368.126993 1771.46277,366.380952 C1775.55853,364.634912 1779.12764,362.277793 1782.17021,359.309524 C1785.21278,356.341255 1787.61169,352.849226 1789.36702,348.833333 C1791.12235,344.81744 1792,340.539705 1792,336 Z" id="fund"></path>
                <path d="M1.42108547e-13,6.03608035 L27.6366445,6.03608035 L167.770689,207.364207 L168.420963,207.364207 L168.420963,6.03608035 L189.880005,6.03608035 L189.880005,235.939812 L162.24336,235.939812 L22.1093156,34.6116854 L21.4590416,34.6116854 L21.4590416,235.939812 L1.42108547e-13,235.939812 L1.42108547e-13,6.03608035 Z M381.279076,121.001964 C381.279076,103.437075 384.208728,87.2819562 390.068121,72.5361235 C395.927514,57.7902907 404.065438,45.050516 414.482137,34.3164172 C424.898835,23.5823183 437.431238,15.1794882 452.07972,9.10767469 C466.728203,3.03586121 482.841292,-9.9475983e-14 500.419471,-9.9475983e-14 C517.99765,-9.9475983e-14 534.110739,3.03586121 548.759221,9.10767469 C563.407704,15.1794882 575.940106,23.5823183 586.356805,34.3164172 C596.773504,45.050516 604.911427,57.7902907 610.77082,72.5361235 C616.630213,87.2819562 619.559866,103.437075 619.559866,121.001964 C619.559866,138.566853 616.630213,154.776183 610.77082,169.630441 C604.911427,184.484699 596.773504,197.278686 586.356805,208.012785 C575.940106,218.746883 563.407704,227.095502 548.759221,233.05889 C534.110739,239.022278 517.99765,242.003928 500.419471,242.003928 C482.841292,242.003928 466.728203,239.022278 452.07972,233.05889 C437.431238,227.095502 424.898835,218.746883 414.482137,208.012785 C404.065438,197.278686 395.927514,184.484699 390.068121,169.630441 C384.208728,154.776183 381.279076,138.566853 381.279076,121.001964 Z M402.687115,121.001964 C402.687115,135.309861 404.967514,148.64202 409.52838,160.998841 C414.089246,173.355661 420.604672,184.086423 429.074851,193.191449 C437.545031,202.296475 447.806826,209.450316 459.860543,214.653188 C471.914261,219.85606 485.433768,222.457457 500.419471,222.457457 C515.405174,222.457457 528.924681,219.85606 540.978398,214.653188 C553.032116,209.450316 563.29391,202.296475 571.76409,193.191449 C580.23427,184.086423 586.749695,173.355661 591.310561,160.998841 C595.871427,148.64202 598.151826,135.309861 598.151826,121.001964 C598.151826,106.694066 595.871427,93.3619074 591.310561,81.0050869 C586.749695,68.6482663 580.23427,57.9175042 571.76409,48.8124786 C563.29391,39.7074529 553.032116,32.5536115 540.978398,27.3507397 C528.924681,22.147868 515.405174,19.5464711 500.419471,19.5464711 C485.433768,19.5464711 471.914261,22.147868 459.860543,27.3507397 C447.806826,32.5536115 437.545031,39.7074529 429.074851,48.8124786 C420.604672,57.9175042 414.089246,68.6482663 409.52838,81.0050869 C404.967514,93.3619074 402.687115,106.694066 402.687115,121.001964 Z M802.798687,6.03608035 L825.856965,6.03608035 L899.903268,207.688929 L974.599099,6.03608035 L997.332613,6.03608035 L909.970967,235.939812 L888.536511,235.939812 L802.798687,6.03608035 Z M1289.66563,6.03608035 L1311.79486,6.03608035 L1408.77293,235.939812 L1384.69113,235.939812 L1359.63304,174.891928 L1237.59687,174.891928 L1211.56248,235.939812 L1189.10783,235.939812 L1289.66563,6.03608035 Z M1299.75661,29.3056888 L1245.88567,155.892359 L1351.99509,155.892359 L1299.75661,29.3056888 Z M1628.73568,6.03608035 L1650.22512,6.03608035 L1650.22512,107.349589 L1652.17871,107.349589 L1763.85867,6.03608035 L1793.48805,6.03608035 L1676.92412,111.246262 L1800,235.939812 L1769.06823,235.939812 L1652.17871,117.091273 L1650.22512,117.091273 L1650.22512,235.939812 L1628.73568,235.939812 L1628.73568,6.03608035 Z" id="NOVAK"></path>
            </g>
            <g id="Group-7" transform="translate(260.000000, 0.000000)">
                <g id="Group-6" transform="translate(0.000000, 188.000000)" stroke="#000000" stroke-width="21">
                    <path d="M81.5,41 L121.5,41" id="Line" stroke-linecap="square" transform="translate(101.500000, 41.000000) scale(-1, -1) translate(-101.500000, -41.000000) "></path>
                    <circle id="Oval" fill="#000000" transform="translate(40.500000, 40.500000) scale(-1, -1) translate(-40.500000, -40.500000) " cx="40.5" cy="40.5" r="40.5"></circle>
                </g>
                <g id="Group-6" transform="translate(420.000000, 228.500000) scale(-1, 1) translate(-420.000000, -228.500000) translate(359.000000, 188.000000)" stroke="#000000" stroke-width="21">
                    <path d="M81.5,41 L121.5,41" id="Line" stroke-linecap="square" transform="translate(101.500000, 41.000000) scale(-1, -1) translate(-101.500000, -41.000000) "></path>
                    <circle id="Oval" transform="translate(40.500000, 40.500000) scale(-1, -1) translate(-40.500000, -40.500000) " cx="40.5" cy="40.5" r="40.5"></circle>
                </g>
                <g id="Group-6" transform="translate(330.000000, 73.500000) scale(-1, 1) rotate(60.000000) translate(-330.000000, -73.500000) translate(269.000000, 33.000000)" stroke="#000000" stroke-width="21">
                    <path d="M81.5,41 L121.5,41" id="Line" stroke-linecap="square" transform="translate(101.500000, 41.000000) scale(-1, -1) translate(-101.500000, -41.000000) "></path>
                    <circle id="Oval" fill="#000000" transform="translate(40.500000, 40.500000) scale(-1, -1) translate(-40.500000, -40.500000) " cx="40.5" cy="40.5" r="40.5"></circle>
                </g>
                <g id="Group-6" transform="translate(151.000000, 73.500000) rotate(60.000000) translate(-151.000000, -73.500000) translate(90.000000, 33.000000)" stroke="#000000" stroke-width="21">
                    <path d="M81.5,41 L121.5,41" id="Line" stroke-linecap="square" transform="translate(101.500000, 41.000000) scale(-1, -1) translate(-101.500000, -41.000000) "></path>
                    <circle id="Oval" transform="translate(40.500000, 40.500000) scale(-1, -1) translate(-40.500000, -40.500000) " cx="40.5" cy="40.5" r="40.5"></circle>
                </g>
                <g id="Group-6" transform="translate(330.000000, 384.500000) scale(-1, -1) rotate(60.000000) translate(-330.000000, -384.500000) translate(269.000000, 344.000000)" stroke="#000000" stroke-width="21">
                    <path d="M81.5,41 L121.5,41" id="Line" stroke-linecap="square" transform="translate(101.500000, 41.000000) scale(-1, -1) translate(-101.500000, -41.000000) "></path>
                    <circle id="Oval" fill="#000000" transform="translate(40.500000, 40.500000) scale(-1, -1) translate(-40.500000, -40.500000) " cx="40.5" cy="40.5" r="40.5"></circle>
                </g>
                <g id="Group-6" transform="translate(151.000000, 384.500000) scale(1, -1) rotate(60.000000) translate(-151.000000, -384.500000) translate(90.000000, 344.000000)" stroke="#000000" stroke-width="21">
                    <path d="M81.5,41 L121.5,41" id="Line" stroke-linecap="square" transform="translate(101.500000, 41.000000) scale(-1, -1) translate(-101.500000, -41.000000) "></path>
                    <circle id="Oval" transform="translate(40.500000, 40.500000) scale(-1, -1) translate(-40.500000, -40.500000) " cx="40.5" cy="40.5" r="40.5"></circle>
                </g>
                <g id="Group-5" transform="translate(122.000000, 110.000000)">
                    <g id="Group-4">
                        <g id="Group-3">
                            <g id="Group-2">
                                <g id="Group">
                                    <circle id="Oval" stroke="#000000" stroke-width="21" fill="#000000" cx="118.5" cy="118.5" r="118.5"></circle>
                                    <polygon id="Path-7" fill="#FFFFFF" points="117 158 117 198 68 118.955733 71.1322824 121.291077"></polygon>
                                    <polygon id="Path-5" fill="#FFFFFF" transform="translate(144.500000, 75.468899) scale(-1, 1) translate(-144.500000, -75.468899) " points="169 39 169 96 120 111.937797"></polygon>
                                    <polygon id="Path-6" fill="#FFFFFF" transform="translate(144.500000, 125.000000) scale(-1, 1) translate(-144.500000, -125.000000) " points="169 100 169 150 120 111.937797"></polygon>
                                </g>
                            </g>
                        </g>
                    </g>
                </g>
            </g>
        </g>
    </g>
</svg>