<svg xmlns="http://www.w3.org/2000/svg" width="540" height="540" viewBox="0 0 540 540">
  <g fill="none" fill-rule="evenodd" transform="translate(30 41)">
    <g stroke="#000" stroke-width="21" transform="translate(0 188)">
      <path stroke-linecap="square" d="M81.5,41 L121.5,41" transform="rotate(180 101.5 41)"/>
      <circle cx="40.5" cy="40.5" r="40.5" fill="#000" transform="rotate(180 40.5 40.5)"/>
    </g>
    <g stroke="#000" stroke-width="21" transform="matrix(-1 0 0 1 481 188)">
      <path stroke-linecap="square" d="M81.5,41 L121.5,41" transform="rotate(180 101.5 41)"/>
      <circle cx="40.5" cy="40.5" r="40.5" transform="rotate(180 40.5 40.5)"/>
    </g>
    <g stroke="#000" stroke-width="21" transform="scale(-1 1) rotate(60 -163.079 -281.616)">
      <path stroke-linecap="square" d="M81.5,41 L121.5,41" transform="rotate(180 101.5 41)"/>
      <circle cx="40.5" cy="40.5" r="40.5" fill="#000" transform="rotate(180 40.5 40.5)"/>
    </g>
    <g stroke="#000" stroke-width="21" transform="rotate(60 77.421 134.942)">
      <path stroke-linecap="square" d="M81.5,41 L121.5,41" transform="rotate(180 101.5 41)"/>
      <circle cx="40.5" cy="40.5" r="40.5" transform="rotate(180 40.5 40.5)"/>
    </g>
    <g stroke="#000" stroke-width="21" transform="rotate(-120 294.804 134.846)">
      <path stroke-linecap="square" d="M81.5,41 L121.5,41" transform="rotate(180 101.5 41)"/>
      <circle cx="40.5" cy="40.5" r="40.5" fill="#000" transform="rotate(180 40.5 40.5)"/>
    </g>
    <g stroke="#000" stroke-width="21" transform="scale(1 -1) rotate(60 474.06 -94.058)">
      <path stroke-linecap="square" d="M81.5,41 L121.5,41" transform="rotate(180 101.5 41)"/>
      <circle cx="40.5" cy="40.5" r="40.5" transform="rotate(180 40.5 40.5)"/>
    </g>
    <g transform="translate(122 110)">
      <circle cx="118.5" cy="118.5" r="118.5" fill="#000" stroke="#000" stroke-width="21"/>
      <polygon fill="#FFF" points="117 158 117 198 68 118.956 71.132 121.291"/>
      <polygon fill="#FFF" points="169 39 169 96 120 111.938" transform="matrix(-1 0 0 1 289 0)"/>
      <polygon fill="#FFF" points="169 100 169 150 120 111.938" transform="matrix(-1 0 0 1 289 0)"/>
    </g>
  </g>
</svg>
